<svg viewBox="0 0 2050 2050" xmlns="http://www.w3.org/2000/svg" fill="#000000">
  <g id="SVGRepo_bgCarrier" stroke-width="0"></g>
  <g id="SVGRepo_tracerCarrier" stroke-linecap="round" stroke-linejoin="round"></g>
  <g id="SVGRepo_iconCarrier">
    <defs>
      <style>
        .cls-1{fill:rgb(245, 255, 255);}
        .cls-2{fill:#ffc500;}
        .cls-3{fill:#ff9f1e;}
        .cls-4{fill:#ffe059;}
        .cls-5{fill:#00305f;}
        .cls-6{fill:#4795ff;}
      </style>
    </defs>
    <title></title>
    <g data-name="Layer 3" id="Layer_3">
      <circle class="cls-2" cx="1025" cy="1025" r="613.7"></circle>
      <path class="cls-3" d="M1068.5,1551.8c-339,0-613.7-274.8-613.7-613.7a613.5,613.5,0,0,1,44.4-229.8A610.7,610.7,0,0,0,411.3,1025c0,338.9,274.8,613.7,613.7,613.7,257.7,0,478.3-158.8,569.2-383.9C1486.8,1432.8,1291.5,1551.8,1068.5,1551.8Z"></path>
      <path class="cls-4" d="M1025,411.3A610.4,610.4,0,0,0,659.9,531.7a706.9,706.9,0,0,1,453.2-18.9,27.8,27.8,0,0,0-3.3,5.1c-18.2,33.9,18.9,89.1,82.7,123.3s130.4,34.6,148.6.8a38.6,38.6,0,0,0,3.7-10.5c165.2,128,271.9,328.1,272.9,553.1a613.3,613.3,0,0,0,21-159.6C1638.7,686.1,1363.9,411.3,1025,411.3Z"></path>
      <ellipse class="cls-4" cx="1051.6" cy="545.5" rx="30.8" ry="44" transform="translate(53.4 1183.4) rotate(-60)"></ellipse>
      <path class="cls-5" d="M1164.7,1266.9h0a506.4,506.4,0,0,0-279.4,0h0a137.4,137.4,0,0,1,137.4-137.4h4.6a137.4,137.4,0,0,1,137.4,137.4Z"></path>
      <ellipse class="cls-5" cx="793.2" cy="930.8" rx="94.9" ry="93.5" transform="translate(-171.1 1682.9) rotate(-87.5)"></ellipse>
      <circle class="cls-1" cx="759.7" cy="897" r="24.6"></circle>
      <circle class="cls-1" cx="833.1" cy="956.7" r="26"></circle>
      <circle class="cls-1" cx="772" cy="969.1" r="12.3"></circle>
      <ellipse class="cls-5" cx="1254.8" cy="930.8" rx="94.9" ry="93.5" transform="translate(270.5 2144.1) rotate(-87.5)"></ellipse>
      <circle class="cls-1" cx="1221.3" cy="897" r="24.6"></circle>
      <circle class="cls-1" cx="1294.7" cy="956.7" r="26"></circle>
      <circle class="cls-1" cx="1233.6" cy="969.1" r="12.3"></circle>
      <path class="cls-6" d="M686.8,1209.9h0a42.7,42.7,0,0,1-9.3-46.6l30.5-74a9.8,9.8,0,0,1,18,0l30.6,74a42.9,42.9,0,0,1-9.3,46.6h0A42.8,42.8,0,0,1,686.8,1209.9Z"></path>
    </g>
  </g>
</svg>
